<?xml version="1.0" encoding="UTF-8" standalone="no"?>
<!-- Created with Inkscape (http://www.inkscape.org/) -->

<svg
   xmlns:dc="http://purl.org/dc/elements/1.1/"
   xmlns:cc="http://creativecommons.org/ns#"
   xmlns:rdf="http://www.w3.org/1999/02/22-rdf-syntax-ns#"
   xmlns:svg="http://www.w3.org/2000/svg"
   xmlns="http://www.w3.org/2000/svg"
   xmlns:sodipodi="http://sodipodi.sourceforge.net/DTD/sodipodi-0.dtd"
   xmlns:inkscape="http://www.inkscape.org/namespaces/inkscape"
   width="349.09668mm"
   height="51.156803mm"
   viewBox="0 0 349.09668 51.156803"
   version="1.1"
   id="svg8"
   sodipodi:docname="mfn-logo.svg"
   inkscape:version="0.92.4 (5da689c313, 2019-01-14)">
  <defs
     id="defs2" />
  <sodipodi:namedview
     id="base"
     pagecolor="#ffffff"
     bordercolor="#666666"
     borderopacity="1.0"
     inkscape:pageopacity="0.0"
     inkscape:pageshadow="2"
     inkscape:zoom="1.4142136"
     inkscape:cx="678.70678"
     inkscape:cy="31.608443"
     inkscape:document-units="mm"
     inkscape:current-layer="layer1"
     showgrid="false"
     inkscape:snap-intersection-paths="true"
     inkscape:snap-smooth-nodes="true"
     inkscape:object-paths="true"
     inkscape:snap-global="true"
     inkscape:window-width="2560"
     inkscape:window-height="1369"
     inkscape:window-x="1358"
     inkscape:window-y="-8"
     inkscape:window-maximized="1"
     inkscape:snap-object-midpoints="true"
     fit-margin-top="0"
     fit-margin-left="0"
     fit-margin-right="0"
     fit-margin-bottom="0" />
  <metadata
     id="metadata5">
    <rdf:RDF>
      <cc:Work
         rdf:about="">
        <dc:format>image/svg+xml</dc:format>
        <dc:type
           rdf:resource="http://purl.org/dc/dcmitype/StillImage" />
        <dc:title />
      </cc:Work>
    </rdf:RDF>
  </metadata>
  <g
     inkscape:label="Layer 1"
     inkscape:groupmode="layer"
     id="layer1"
     transform="translate(65.806901,-81.407504)">
    <path
       style="fill:#53565a;fill-opacity:1;stroke:none;stroke-width:0.26458332px;stroke-linecap:butt;stroke-linejoin:miter;stroke-opacity:1"
       d="M 4.0690022,125.42804 V 88.90478 H 9.4888263 L 22.892052,120.40876 36.295277,88.90478 h 5.419825 v 36.52326 H 38.146328 V 92.580435 L 24.445872,125.42804 h -3.10764 L 7.6377765,92.580435 v 32.847605 z"
       id="path834"
       inkscape:connector-curvature="0" />
    <path
       style="fill:#53565a;fill-opacity:1;stroke:none;stroke-width:0.26458332px;stroke-linecap:butt;stroke-linejoin:miter;stroke-opacity:1"
       d="m 48.43115,125.42804 h 19.831349 v -3.16301 H 52.036098 v -13.46026 h 15.707569 v -3.21841 H 52.036098 V 92.09552 H 68.262499 V 88.90478 H 48.43115 Z"
       id="path840"
       inkscape:connector-curvature="0"
       sodipodi:nodetypes="ccccccccccccc" />
    <path
       style="fill:#53565a;fill-opacity:1;stroke:none;stroke-width:0.26458332px;stroke-linecap:butt;stroke-linejoin:miter;stroke-opacity:1"
       d="m 71.536718,88.90478 v 3.19074 h 8.350911 v 33.33252 H 83.53509 V 92.09552 h 8.787321 v -3.19074 z"
       id="path850"
       inkscape:connector-curvature="0" />
    <path
       style="fill:#53565a;fill-opacity:1;stroke:none;stroke-width:0.26458332px;stroke-linecap:butt;stroke-linejoin:miter;stroke-opacity:1"
       d="m 108.76513,108.91157 c 0,0 8.51143,-0.11178 8.51143,-8.46391 0,-8.35214 -9.85573,-8.35214 -9.85573,-8.35214 h -7.714264 v 33.33252 H 96.087569 V 88.90478 h 11.556501 c 0,0 13.36973,0.529073 13.36973,11.52634 0,10.99727 -10.88099,11.45977 -10.88099,11.45977 l 10.2278,13.53715 h -4.52686 l -12.52573,-16.51647 z"
       id="path852"
       inkscape:connector-curvature="0"
       sodipodi:nodetypes="cscccccczccccc" />
    <path
       style="opacity:1;fill:#53565a;fill-opacity:1;fill-rule:evenodd;stroke:none;stroke-width:0.25232533;stroke-linecap:round;stroke-linejoin:miter;stroke-miterlimit:4;stroke-dasharray:none;stroke-dashoffset:0;stroke-opacity:0.83561641;paint-order:markers fill stroke"
       d="m 541.4668,331.79688 a 73.715883,73.715883 0 0 0 -73.71485,73.71679 73.715883,73.715883 0 0 0 73.71485,73.71485 73.715883,73.715883 0 0 0 73.71679,-73.71485 73.715883,73.715883 0 0 0 -73.71679,-73.71679 z m 0,13.92578 a 59.790636,59.790636 0 0 1 59.79101,59.79101 59.790636,59.790636 0 0 1 -59.79101,59.79102 59.790636,59.790636 0 0 1 -59.79102,-59.79102 59.790636,59.790636 0 0 1 59.79102,-59.79101 z"
       id="path856"
       inkscape:connector-curvature="0"
       transform="scale(0.26458333)" />
    <path
       style="fill:#009cde;fill-opacity:1;stroke:none;stroke-width:0.26458332px;stroke-linecap:butt;stroke-linejoin:miter;stroke-opacity:1"
       d="m 192.2169,88.90478 v 36.52326 h 6.8989 V 88.90478 Z"
       id="path905"
       inkscape:connector-curvature="0" />
    <path
       style="fill:#009cde;fill-opacity:1;stroke:none;stroke-width:0.26458332px;stroke-linecap:butt;stroke-linejoin:miter;stroke-opacity:1"
       d="m 167.6915,88.90478 h 18.9545 v 6.44492 h -12.02713 v 30.07834 h -6.92737 z"
       id="path907"
       inkscape:connector-curvature="0"
       sodipodi:nodetypes="ccccccc" />
    <path
       style="fill:#009cde;fill-opacity:1;stroke:none;stroke-width:0.26458332px;stroke-linecap:butt;stroke-linejoin:miter;stroke-opacity:1"
       d="m 176.97419,104.18174 v 6.44056 h 9.16727 v -6.44056 z"
       id="path913"
       inkscape:connector-curvature="0" />
    <path
       style="fill:#009cde;fill-opacity:1;stroke:none;stroke-width:0.24566928;stroke-linecap:butt;stroke-linejoin:miter;stroke-miterlimit:4;stroke-dasharray:none;stroke-opacity:1"
       d="M 779.125,336.01758 V 474.05859 L 827.35938,473.75 c 31.16423,-0.19956 42.33203,-22.98819 42.33203,-39.71094 0,-29.94179 -24.45118,-34.59179 -24.45118,-34.59179 0,0 17.07616,-8.17383 16.26368,-26.48633 -0.75908,-17.10817 -10.18777,-36.94336 -50.44922,-36.94336 z m 31.58398,24.25 c 3.31234,0.009 7.6303,0.14717 11.6504,0.6582 8.48106,1.0781 13.58593,5.72688 13.58593,14.13086 0,9.96425 -7.36987,14.30785 -15.70312,15.01367 -6.40437,0.54274 -15.06446,0.2168 -15.06446,0.2168 l -0.0879,-29.91016 c 0,0 2.3068,-0.11867 5.61914,-0.10937 z m -5.61914,54.3789 c 0,0 9.57694,-0.0301 17.67578,0.28321 17.58505,0.68035 21.33486,10.45762 21.26758,18.86133 -0.0884,11.0691 -7.06086,16.78146 -23.79101,17.66406 -6.4184,0.33845 -15.06446,-0.0469 -15.06446,-0.0469 z"
       id="path921"
       inkscape:connector-curvature="0"
       transform="scale(0.26458333)" />
    <path
       style="fill:#009cde;fill-opacity:1;stroke:none;stroke-width:0.99999994px;stroke-linecap:butt;stroke-linejoin:miter;stroke-opacity:1"
       d="m 887.1543,336.01758 v 138.04101 h 26.2832 v -52.41406 l 36.82812,52.41406 h 31.1875 l -37.85937,-50.67187 c 0,0 37.96875,-5.6797 37.96875,-42.49219 0,-32.56251 -24.55425,-44.87695 -51.32812,-44.87695 z m 44.30078,24.28906 c 6.25085,0.0633 22.91992,1.99805 22.91992,20.83789 0,23.37498 -25.25,21.375 -25.25,21.375 h -15.6875 v -42.14258 h 15.6875 c 0,0 0.88757,-0.0849 2.33008,-0.0703 z"
       id="path927"
       inkscape:connector-curvature="0"
       transform="scale(0.26458333)" />
    <path
       style="fill:#009cde;fill-opacity:1;stroke:none;stroke-width:0.26458332px;stroke-linecap:butt;stroke-linejoin:miter;stroke-opacity:1"
       d="m 283.28978,125.42804 v -6.37988 H 270.28582 V 95.3497 h 13.00396 v -6.44492 h -19.80872 v 36.52326 z"
       id="path940"
       inkscape:connector-curvature="0" />
    <path
       style="fill:#009cde;fill-opacity:1;stroke:none;stroke-width:0.26458332px;stroke-linecap:butt;stroke-linejoin:miter;stroke-opacity:1"
       d="m 272.67247,104.18174 v 6.44056 h 10.14958 v -6.44056 z"
       id="path942"
       inkscape:connector-curvature="0" />
    <circle
       inkscape:tile-y0="240.08828"
       inkscape:tile-x0="118.93247"
       style="fill:#53565a;fill-opacity:1;stroke-width:0.82045603"
       r="3.1079459"
       cy="106.98593"
       cx="-62.698956"
       id="use6867" />
    <circle
       inkscape:tile-y0="240.08828"
       inkscape:tile-x0="118.93247"
       style="fill:#53565a;fill-opacity:1;stroke-width:0.82045603"
       r="3.1079459"
       cy="114.47603"
       cx="-58.409966"
       id="use6869" />
    <circle
       inkscape:tile-y0="240.08828"
       inkscape:tile-x0="118.93247"
       style="fill:#009cde;fill-opacity:1;stroke-width:0.82045603"
       r="3.1079459"
       cy="121.96619"
       cx="-54.120995"
       id="use6871" />
    <circle
       inkscape:tile-y0="240.08828"
       inkscape:tile-x0="118.93247"
       style="fill:#009cde;fill-opacity:1;stroke-width:0.82045603"
       r="3.1079459"
       cy="129.45636"
       cx="-49.832054"
       id="use6873" />
    <circle
       inkscape:tile-y0="240.08828"
       inkscape:tile-x0="118.93247"
       style="fill:#53565a;fill-opacity:1;stroke-width:0.82045603"
       r="3.1079459"
       cy="99.49575"
       cx="-58.409966"
       id="use6879" />
    <circle
       inkscape:tile-y0="240.08828"
       inkscape:tile-x0="118.93247"
       style="fill:#53565a;fill-opacity:1;stroke-width:0.82045603"
       r="3.1079459"
       cy="106.98593"
       cx="-54.120995"
       id="use6881" />
    <circle
       inkscape:tile-y0="240.08828"
       inkscape:tile-x0="118.93247"
       style="fill:#009cde;fill-opacity:1;stroke-width:0.82045603"
       r="3.1079459"
       cy="114.47603"
       cx="-49.832054"
       id="use6883" />
    <circle
       inkscape:tile-y0="240.08828"
       inkscape:tile-x0="118.93247"
       style="fill:#009cde;fill-opacity:1;stroke-width:0.82045603"
       r="3.1079459"
       cy="121.96619"
       cx="-45.543114"
       id="use6885" />
    <circle
       inkscape:tile-y0="240.08828"
       inkscape:tile-x0="118.93247"
       style="fill:#009cde;fill-opacity:1;stroke-width:0.82045603"
       r="3.1079459"
       cy="129.45636"
       cx="-41.254169"
       id="use6887" />
    <circle
       inkscape:tile-y0="240.08828"
       inkscape:tile-x0="118.93247"
       style="fill:#53565a;fill-opacity:1;stroke-width:0.82045603"
       r="3.1079459"
       cy="92.005623"
       cx="-54.120995"
       id="use6891" />
    <circle
       inkscape:tile-y0="240.08828"
       inkscape:tile-x0="118.93247"
       style="fill:#53565a;fill-opacity:1;stroke-width:0.82045603"
       r="3.1079459"
       cy="99.49575"
       cx="-49.832054"
       id="use6893" />
    <circle
       inkscape:tile-y0="240.08828"
       inkscape:tile-x0="118.93247"
       style="fill:#53565a;fill-opacity:1;stroke-width:0.82045603"
       r="3.1079459"
       cy="106.98593"
       cx="-45.543114"
       id="use6895" />
    <circle
       inkscape:tile-y0="240.08828"
       inkscape:tile-x0="118.93247"
       style="fill:#53565a;fill-opacity:1;stroke-width:0.82045603"
       r="3.1079459"
       cy="114.47603"
       cx="-41.254169"
       id="use6897" />
    <circle
       inkscape:tile-y0="240.08828"
       inkscape:tile-x0="118.93247"
       style="fill:#53565a;fill-opacity:1;stroke-width:0.82045603"
       r="3.1079459"
       cy="121.96619"
       cx="-36.965126"
       id="use6899" />
    <circle
       inkscape:tile-y0="240.08828"
       inkscape:tile-x0="118.93247"
       style="fill:#009cde;fill-opacity:1;stroke-width:0.82045603"
       r="3.1079459"
       cy="129.45636"
       cx="-32.676193"
       id="use6901" />
    <circle
       inkscape:tile-y0="240.08828"
       inkscape:tile-x0="118.93247"
       style="fill:#53565a;fill-opacity:1;stroke-width:0.82045603"
       r="3.1079459"
       cy="84.51545"
       cx="-49.832054"
       id="use6903" />
    <circle
       inkscape:tile-y0="240.08828"
       inkscape:tile-x0="118.93247"
       style="fill:#53565a;fill-opacity:1;stroke-width:0.82045603"
       r="3.1079459"
       cy="92.005623"
       cx="-45.543114"
       id="use6905" />
    <circle
       inkscape:tile-y0="240.08828"
       inkscape:tile-x0="118.93247"
       style="fill:#53565a;fill-opacity:1;stroke-width:0.82045603"
       r="3.1079459"
       cy="99.49575"
       cx="-41.254169"
       id="use6907" />
    <circle
       inkscape:tile-y0="240.08828"
       inkscape:tile-x0="118.93247"
       style="fill:#53565a;fill-opacity:1;stroke-width:0.82045603"
       r="3.1079459"
       cy="106.98593"
       cx="-36.965126"
       id="use6909" />
    <circle
       inkscape:tile-y0="240.08828"
       inkscape:tile-x0="118.93247"
       style="fill:#53565a;fill-opacity:1;stroke-width:0.82045603"
       r="3.1079459"
       cy="114.47603"
       cx="-32.676193"
       id="use6911" />
    <circle
       inkscape:tile-y0="240.08828"
       inkscape:tile-x0="118.93247"
       style="fill:#009cde;fill-opacity:1;stroke-width:0.82045603"
       r="3.1079459"
       cy="121.96619"
       cx="-28.387201"
       id="use6913" />
    <circle
       inkscape:tile-y0="240.08828"
       inkscape:tile-x0="118.93247"
       style="fill:#009cde;fill-opacity:1;stroke-width:0.82045603"
       r="3.1079459"
       cy="129.45636"
       cx="-24.098234"
       id="use6915" />
    <circle
       inkscape:tile-y0="240.08828"
       inkscape:tile-x0="118.93247"
       style="fill:#009cde;fill-opacity:1;stroke-width:0.82045603"
       r="3.1079459"
       cy="84.51545"
       cx="-41.254169"
       id="use6917" />
    <circle
       inkscape:tile-y0="240.08828"
       inkscape:tile-x0="118.93247"
       style="fill:#009cde;fill-opacity:1;stroke-width:0.82045603"
       r="3.1079459"
       cy="92.005623"
       cx="-36.965126"
       id="use6919" />
    <circle
       inkscape:tile-y0="240.08828"
       inkscape:tile-x0="118.93247"
       style="fill:#53565a;fill-opacity:1;stroke-width:0.82045603"
       r="3.1079459"
       cy="99.49575"
       cx="-32.676193"
       id="use6921" />
    <circle
       inkscape:tile-y0="240.08828"
       inkscape:tile-x0="118.93247"
       style="fill:#53565a;fill-opacity:1;stroke-width:0.82045603"
       r="3.1079459"
       cy="106.98593"
       cx="-28.387201"
       id="use6923" />
    <circle
       inkscape:tile-y0="240.08828"
       inkscape:tile-x0="118.93247"
       style="fill:#009cde;fill-opacity:1;stroke-width:0.82045603"
       r="3.1079459"
       cy="114.47603"
       cx="-24.098234"
       id="use6925" />
    <circle
       inkscape:tile-y0="240.08828"
       inkscape:tile-x0="118.93247"
       style="fill:#009cde;fill-opacity:1;stroke-width:0.82045603"
       r="3.1079459"
       cy="121.96619"
       cx="-19.809267"
       id="use6927" />
    <circle
       inkscape:tile-y0="240.08828"
       inkscape:tile-x0="118.93247"
       style="fill:#009cde;fill-opacity:1;stroke-width:0.82045603"
       r="3.1079459"
       cy="84.51545"
       cx="-32.676193"
       id="use6931" />
    <circle
       inkscape:tile-y0="240.08828"
       inkscape:tile-x0="118.93247"
       style="fill:#53565a;fill-opacity:1;stroke-width:0.82045603"
       r="3.1079459"
       cy="92.005623"
       cx="-28.387201"
       id="use6933" />
    <circle
       inkscape:tile-y0="240.08828"
       inkscape:tile-x0="118.93247"
       style="fill:#53565a;fill-opacity:1;stroke-width:0.82045603"
       r="3.1079459"
       cy="99.49575"
       cx="-24.098234"
       id="use6935" />
    <circle
       inkscape:tile-y0="240.08828"
       inkscape:tile-x0="118.93247"
       style="fill:#53565a;fill-opacity:1;stroke-width:0.82045603"
       r="3.1079459"
       cy="106.98593"
       cx="-19.809267"
       id="use6937" />
    <circle
       inkscape:tile-y0="240.08828"
       inkscape:tile-x0="118.93247"
       style="fill:#53565a;fill-opacity:1;stroke-width:0.82045603"
       r="3.1079459"
       cy="114.47603"
       cx="-15.520302"
       id="use6939" />
    <circle
       inkscape:tile-y0="240.08828"
       inkscape:tile-x0="118.93247"
       style="fill:#53565a;fill-opacity:1;stroke-width:0.82045603"
       r="3.1079459"
       cy="84.51545"
       cx="-24.098234"
       id="use6945" />
    <circle
       inkscape:tile-y0="240.08828"
       inkscape:tile-x0="118.93247"
       style="fill:#53565a;fill-opacity:1;stroke-width:0.82045603"
       r="3.1079459"
       cy="92.005623"
       cx="-19.809267"
       id="use6947" />
    <circle
       inkscape:tile-y0="240.08828"
       inkscape:tile-x0="118.93247"
       style="fill:#53565a;fill-opacity:1;stroke-width:0.82045603"
       r="3.1079459"
       cy="99.49575"
       cx="-15.520302"
       id="use6949" />
    <circle
       inkscape:tile-y0="240.08828"
       inkscape:tile-x0="118.93247"
       style="fill:#53565a;fill-opacity:1;stroke-width:0.82045603"
       r="3.1079459"
       cy="106.98593"
       cx="-11.231333"
       id="use6951" />
  </g>
</svg>
